<svg width="191" height="64" viewBox="0 0 191 64" fill="none" xmlns="http://www.w3.org/2000/svg">
<rect x="1" width="189" height="22" rx="2" fill="#FF4100"/>
<path d="M13.6558 9.328C13.9011 9.34933 14.1625 9.34933 14.4398 9.328C14.7171 9.30667 14.9731 9.248 15.2078 9.152C15.4531 9.04533 15.6505 8.896 15.7998 8.704C15.9598 8.512 16.0398 8.256 16.0398 7.936C16.0398 7.456 15.8798 7.088 15.5598 6.832C15.2398 6.576 14.8718 6.448 14.4558 6.448C13.8798 6.448 13.4425 6.64 13.1438 7.024C12.8558 7.39733 12.7171 7.872 12.7278 8.448H10.5678C10.5891 7.872 10.6905 7.34933 10.8718 6.88C11.0638 6.4 11.3251 5.98933 11.6558 5.648C11.9971 5.30667 12.4025 5.04533 12.8718 4.864C13.3411 4.672 13.8638 4.576 14.4398 4.576C14.8878 4.576 15.3358 4.64533 15.7838 4.784C16.2318 4.912 16.6318 5.10933 16.9838 5.376C17.3465 5.64267 17.6398 5.968 17.8638 6.352C18.0878 6.736 18.1998 7.17867 18.1998 7.68C18.1998 8.224 18.0665 8.704 17.7998 9.12C17.5438 9.536 17.1545 9.81867 16.6318 9.968V10C17.2505 10.1387 17.7358 10.4373 18.0878 10.896C18.4398 11.3547 18.6158 11.904 18.6158 12.544C18.6158 13.1307 18.4985 13.6533 18.2638 14.112C18.0398 14.5707 17.7358 14.9547 17.3518 15.264C16.9678 15.5733 16.5251 15.808 16.0238 15.968C15.5225 16.128 14.9998 16.208 14.4558 16.208C13.8265 16.208 13.2505 16.1173 12.7278 15.936C12.2158 15.7547 11.7785 15.4933 11.4158 15.152C11.0531 14.8 10.7705 14.3733 10.5678 13.872C10.3758 13.3707 10.2851 12.7947 10.2958 12.144H12.4558C12.4665 12.4427 12.5145 12.7307 12.5998 13.008C12.6851 13.2747 12.8078 13.5093 12.9678 13.712C13.1278 13.904 13.3251 14.0587 13.5598 14.176C13.8051 14.2933 14.0931 14.352 14.4238 14.352C14.9358 14.352 15.3678 14.1973 15.7198 13.888C16.0718 13.568 16.2478 13.136 16.2478 12.592C16.2478 12.1653 16.1625 11.84 15.9918 11.616C15.8318 11.392 15.6238 11.232 15.3678 11.136C15.1118 11.0293 14.8291 10.9707 14.5198 10.96C14.2211 10.9387 13.9331 10.928 13.6558 10.928V9.328ZM29.8476 10.64C29.6982 9.69067 29.1382 9.216 28.1676 9.216C27.8049 9.216 27.5009 9.30133 27.2556 9.472C27.0102 9.632 26.8076 9.84533 26.6476 10.112C26.4982 10.368 26.3916 10.656 26.3276 10.976C26.2636 11.2853 26.2316 11.5947 26.2316 11.904C26.2316 12.2027 26.2636 12.5067 26.3276 12.816C26.3916 13.1253 26.4929 13.408 26.6316 13.664C26.7809 13.9093 26.9782 14.112 27.2236 14.272C27.4689 14.432 27.7676 14.512 28.1196 14.512C28.6636 14.512 29.0796 14.3627 29.3676 14.064C29.6662 13.7547 29.8529 13.344 29.9276 12.832H32.1196C31.9702 13.9307 31.5436 14.768 30.8396 15.344C30.1356 15.92 29.2342 16.208 28.1356 16.208C27.5169 16.208 26.9462 16.1067 26.4236 15.904C25.9116 15.6907 25.4742 15.3973 25.1116 15.024C24.7489 14.6507 24.4662 14.208 24.2636 13.696C24.0609 13.1733 23.9596 12.6027 23.9596 11.984C23.9596 11.344 24.0502 10.752 24.2316 10.208C24.4236 9.65333 24.7009 9.17867 25.0636 8.784C25.4262 8.37867 25.8689 8.064 26.3916 7.84C26.9142 7.616 27.5116 7.504 28.1836 7.504C28.6742 7.504 29.1436 7.568 29.5916 7.696C30.0502 7.824 30.4556 8.02133 30.8076 8.288C31.1702 8.544 31.4636 8.86933 31.6876 9.264C31.9116 9.648 32.0396 10.1067 32.0716 10.64H29.8476ZM35.4191 11.872C35.4191 12.2027 35.4511 12.528 35.5151 12.848C35.5791 13.1573 35.6857 13.44 35.8351 13.696C35.9951 13.9413 36.2031 14.1387 36.4591 14.288C36.7151 14.4373 37.0351 14.512 37.4191 14.512C37.8031 14.512 38.1231 14.4373 38.3791 14.288C38.6457 14.1387 38.8537 13.9413 39.0031 13.696C39.1631 13.44 39.2751 13.1573 39.3391 12.848C39.4031 12.528 39.4351 12.2027 39.4351 11.872C39.4351 11.5413 39.4031 11.216 39.3391 10.896C39.2751 10.576 39.1631 10.2933 39.0031 10.048C38.8537 9.80267 38.6457 9.60533 38.3791 9.456C38.1231 9.296 37.8031 9.216 37.4191 9.216C37.0351 9.216 36.7151 9.296 36.4591 9.456C36.2031 9.60533 35.9951 9.80267 35.8351 10.048C35.6857 10.2933 35.5791 10.576 35.5151 10.896C35.4511 11.216 35.4191 11.5413 35.4191 11.872ZM33.1471 11.872C33.1471 11.2107 33.2484 10.6133 33.4511 10.08C33.6537 9.536 33.9417 9.07733 34.3151 8.704C34.6884 8.32 35.1364 8.02667 35.6591 7.824C36.1817 7.61067 36.7684 7.504 37.4191 7.504C38.0697 7.504 38.6564 7.61067 39.1791 7.824C39.7124 8.02667 40.1657 8.32 40.5391 8.704C40.9124 9.07733 41.2004 9.536 41.4031 10.08C41.6057 10.6133 41.7071 11.2107 41.7071 11.872C41.7071 12.5333 41.6057 13.1307 41.4031 13.664C41.2004 14.1973 40.9124 14.656 40.5391 15.04C40.1657 15.4133 39.7124 15.7013 39.1791 15.904C38.6564 16.1067 38.0697 16.208 37.4191 16.208C36.7684 16.208 36.1817 16.1067 35.6591 15.904C35.1364 15.7013 34.6884 15.4133 34.3151 15.04C33.9417 14.656 33.6537 14.1973 33.4511 13.664C33.2484 13.1307 33.1471 12.5333 33.1471 11.872ZM50.9443 16H48.7843V14.848H48.7363C48.4483 15.328 48.075 15.6747 47.6163 15.888C47.1576 16.1013 46.6883 16.208 46.2083 16.208C45.6003 16.208 45.099 16.128 44.7043 15.968C44.3203 15.808 44.0163 15.584 43.7923 15.296C43.5683 14.9973 43.4083 14.64 43.3123 14.224C43.227 13.7973 43.1843 13.328 43.1843 12.816V7.728H45.4563V12.4C45.4563 13.0827 45.563 13.5947 45.7763 13.936C45.9896 14.2667 46.3683 14.432 46.9123 14.432C47.531 14.432 47.979 14.2507 48.2563 13.888C48.5336 13.5147 48.6723 12.9067 48.6723 12.064V7.728H50.9443V16ZM52.6687 7.728H54.8287V9.264H54.8607C54.9674 9.008 55.1114 8.77333 55.2927 8.56C55.474 8.336 55.682 8.14933 55.9167 8C56.1514 7.84 56.402 7.71733 56.6687 7.632C56.9354 7.54667 57.2127 7.504 57.5007 7.504C57.65 7.504 57.8154 7.53067 57.9967 7.584V9.696C57.89 9.67467 57.762 9.65867 57.6127 9.648C57.4634 9.62667 57.3194 9.616 57.1807 9.616C56.7647 9.616 56.4127 9.68533 56.1247 9.824C55.8367 9.96267 55.602 10.1547 55.4207 10.4C55.25 10.6347 55.1274 10.912 55.0527 11.232C54.978 11.552 54.9407 11.8987 54.9407 12.272V16H52.6687V7.728ZM60.6474 13.312C60.6474 13.5573 60.6954 13.7707 60.7914 13.952C60.8981 14.1227 61.0314 14.2667 61.1914 14.384C61.3514 14.4907 61.5328 14.5707 61.7354 14.624C61.9488 14.6773 62.1674 14.704 62.3914 14.704C62.5514 14.704 62.7168 14.688 62.8874 14.656C63.0688 14.6133 63.2288 14.5547 63.3674 14.48C63.5168 14.3947 63.6394 14.288 63.7354 14.16C63.8314 14.0213 63.8794 13.8507 63.8794 13.648C63.8794 13.3067 63.6501 13.0507 63.1914 12.88C62.7434 12.7093 62.1141 12.5387 61.3034 12.368C60.9728 12.2933 60.6474 12.208 60.3274 12.112C60.0181 12.0053 59.7408 11.872 59.4954 11.712C59.2501 11.5413 59.0528 11.3333 58.9034 11.088C58.7541 10.832 58.6794 10.5227 58.6794 10.16C58.6794 9.62667 58.7808 9.18933 58.9834 8.848C59.1968 8.50667 59.4741 8.24 59.8154 8.048C60.1568 7.84533 60.5408 7.70667 60.9674 7.632C61.3941 7.54667 61.8314 7.504 62.2794 7.504C62.7274 7.504 63.1594 7.54667 63.5754 7.632C64.0021 7.71733 64.3808 7.86133 64.7114 8.064C65.0421 8.26667 65.3141 8.53867 65.5274 8.88C65.7514 9.21067 65.8848 9.632 65.9274 10.144H63.7674C63.7354 9.70667 63.5701 9.41333 63.2714 9.264C62.9728 9.104 62.6208 9.024 62.2154 9.024C62.0874 9.024 61.9488 9.03467 61.7994 9.056C61.6501 9.06667 61.5114 9.09867 61.3834 9.152C61.2661 9.20533 61.1648 9.28533 61.0794 9.392C60.9941 9.488 60.9514 9.62133 60.9514 9.792C60.9514 9.99467 61.0261 10.16 61.1754 10.288C61.3248 10.416 61.5168 10.5227 61.7514 10.608C61.9968 10.6827 62.2741 10.752 62.5834 10.816C62.8928 10.88 63.2074 10.9493 63.5274 11.024C63.8581 11.0987 64.1781 11.1893 64.4874 11.296C64.8074 11.4027 65.0901 11.5467 65.3354 11.728C65.5808 11.8987 65.7781 12.1173 65.9274 12.384C66.0768 12.64 66.1514 12.96 66.1514 13.344C66.1514 13.888 66.0394 14.3467 65.8154 14.72C65.6021 15.0827 65.3194 15.376 64.9674 15.6C64.6154 15.824 64.2101 15.9787 63.7514 16.064C63.3034 16.16 62.8448 16.208 62.3754 16.208C61.8954 16.208 61.4261 16.16 60.9674 16.064C60.5088 15.968 60.0981 15.808 59.7354 15.584C59.3834 15.36 59.0901 15.0667 58.8554 14.704C58.6314 14.3307 58.5088 13.8667 58.4874 13.312H60.6474ZM73.0492 10.976C72.9425 10.4 72.7505 9.96267 72.4732 9.664C72.2065 9.36533 71.7959 9.216 71.2412 9.216C70.8785 9.216 70.5745 9.28 70.3292 9.408C70.0945 9.52533 69.9025 9.67467 69.7532 9.856C69.6145 10.0373 69.5132 10.2293 69.4492 10.432C69.3959 10.6347 69.3639 10.816 69.3532 10.976H73.0492ZM69.3532 12.416C69.3852 13.152 69.5719 13.6853 69.9132 14.016C70.2545 14.3467 70.7452 14.512 71.3852 14.512C71.8439 14.512 72.2385 14.4 72.5692 14.176C72.8999 13.9413 73.1025 13.696 73.1772 13.44H75.1772C74.8572 14.432 74.3665 15.1413 73.7052 15.568C73.0439 15.9947 72.2439 16.208 71.3052 16.208C70.6545 16.208 70.0679 16.1067 69.5452 15.904C69.0225 15.6907 68.5799 15.392 68.2172 15.008C67.8545 14.624 67.5719 14.1653 67.3692 13.632C67.1772 13.0987 67.0812 12.512 67.0812 11.872C67.0812 11.2533 67.1825 10.6773 67.3852 10.144C67.5879 9.61067 67.8759 9.152 68.2492 8.768C68.6225 8.37333 69.0652 8.064 69.5772 7.84C70.0999 7.616 70.6759 7.504 71.3052 7.504C72.0092 7.504 72.6225 7.64267 73.1452 7.92C73.6679 8.18667 74.0945 8.54933 74.4252 9.008C74.7665 9.46667 75.0119 9.98933 75.1612 10.576C75.3105 11.1627 75.3639 11.776 75.3212 12.416H69.3532ZM78.4287 13.312C78.4287 13.5573 78.4767 13.7707 78.5727 13.952C78.6794 14.1227 78.8127 14.2667 78.9727 14.384C79.1327 14.4907 79.314 14.5707 79.5167 14.624C79.73 14.6773 79.9487 14.704 80.1727 14.704C80.3327 14.704 80.498 14.688 80.6687 14.656C80.85 14.6133 81.01 14.5547 81.1487 14.48C81.298 14.3947 81.4207 14.288 81.5167 14.16C81.6127 14.0213 81.6607 13.8507 81.6607 13.648C81.6607 13.3067 81.4314 13.0507 80.9727 12.88C80.5247 12.7093 79.8954 12.5387 79.0847 12.368C78.754 12.2933 78.4287 12.208 78.1087 12.112C77.7994 12.0053 77.522 11.872 77.2767 11.712C77.0314 11.5413 76.834 11.3333 76.6847 11.088C76.5354 10.832 76.4607 10.5227 76.4607 10.16C76.4607 9.62667 76.562 9.18933 76.7647 8.848C76.978 8.50667 77.2554 8.24 77.5967 8.048C77.938 7.84533 78.322 7.70667 78.7487 7.632C79.1754 7.54667 79.6127 7.504 80.0607 7.504C80.5087 7.504 80.9407 7.54667 81.3567 7.632C81.7834 7.71733 82.162 7.86133 82.4927 8.064C82.8234 8.26667 83.0954 8.53867 83.3087 8.88C83.5327 9.21067 83.666 9.632 83.7087 10.144H81.5487C81.5167 9.70667 81.3514 9.41333 81.0527 9.264C80.754 9.104 80.402 9.024 79.9967 9.024C79.8687 9.024 79.73 9.03467 79.5807 9.056C79.4314 9.06667 79.2927 9.09867 79.1647 9.152C79.0474 9.20533 78.946 9.28533 78.8607 9.392C78.7754 9.488 78.7327 9.62133 78.7327 9.792C78.7327 9.99467 78.8074 10.16 78.9567 10.288C79.106 10.416 79.298 10.5227 79.5327 10.608C79.778 10.6827 80.0554 10.752 80.3647 10.816C80.674 10.88 80.9887 10.9493 81.3087 11.024C81.6394 11.0987 81.9594 11.1893 82.2687 11.296C82.5887 11.4027 82.8714 11.5467 83.1167 11.728C83.362 11.8987 83.5594 12.1173 83.7087 12.384C83.858 12.64 83.9327 12.96 83.9327 13.344C83.9327 13.888 83.8207 14.3467 83.5967 14.72C83.3834 15.0827 83.1007 15.376 82.7487 15.6C82.3967 15.824 81.9914 15.9787 81.5327 16.064C81.0847 16.16 80.626 16.208 80.1567 16.208C79.6767 16.208 79.2074 16.16 78.7487 16.064C78.29 15.968 77.8794 15.808 77.5167 15.584C77.1647 15.36 76.8714 15.0667 76.6367 14.704C76.4127 14.3307 76.29 13.8667 76.2687 13.312H78.4287ZM92.0516 6.448H89.7796V4.576H92.0516V6.448ZM89.7796 7.728H92.0516V16H89.7796V7.728ZM93.8406 7.728H96.0006V8.88H96.0486C96.3366 8.4 96.7099 8.05333 97.1686 7.84C97.6272 7.616 98.0966 7.504 98.5766 7.504C99.1846 7.504 99.6806 7.58933 100.065 7.76C100.459 7.92 100.769 8.14933 100.993 8.448C101.217 8.736 101.371 9.09333 101.457 9.52C101.553 9.936 101.601 10.4 101.601 10.912V16H99.3286V11.328C99.3286 10.6453 99.2219 10.1387 99.0086 9.808C98.7952 9.46667 98.4166 9.296 97.8726 9.296C97.2539 9.296 96.8059 9.48267 96.5286 9.856C96.2512 10.2187 96.1126 10.8213 96.1126 11.664V16H93.8406V7.728ZM113.186 16H110.914V8.736H108.098V7.024C108.493 7.03467 108.871 7.008 109.234 6.944C109.607 6.86933 109.938 6.74667 110.226 6.576C110.525 6.39467 110.775 6.16 110.978 5.872C111.181 5.584 111.314 5.22667 111.378 4.8H113.186V16ZM125.298 14.512C125.671 14.512 125.98 14.4373 126.226 14.288C126.482 14.1387 126.684 13.9467 126.834 13.712C126.994 13.4667 127.106 13.184 127.17 12.864C127.234 12.544 127.266 12.2187 127.266 11.888C127.266 11.5573 127.228 11.232 127.154 10.912C127.09 10.592 126.978 10.3093 126.818 10.064C126.658 9.808 126.45 9.60533 126.194 9.456C125.948 9.296 125.644 9.216 125.282 9.216C124.908 9.216 124.594 9.296 124.338 9.456C124.092 9.60533 123.89 9.80267 123.73 10.048C123.58 10.2933 123.474 10.576 123.41 10.896C123.346 11.216 123.314 11.5467 123.314 11.888C123.314 12.2187 123.346 12.544 123.41 12.864C123.484 13.184 123.596 13.4667 123.746 13.712C123.906 13.9467 124.114 14.1387 124.37 14.288C124.626 14.4373 124.935 14.512 125.298 14.512ZM121.122 7.728H123.282V8.784H123.314C123.591 8.336 123.943 8.01067 124.37 7.808C124.796 7.60533 125.266 7.504 125.778 7.504C126.428 7.504 126.988 7.62667 127.458 7.872C127.927 8.11733 128.316 8.44267 128.626 8.848C128.935 9.25333 129.164 9.728 129.314 10.272C129.463 10.8053 129.538 11.3653 129.538 11.952C129.538 12.5067 129.463 13.04 129.314 13.552C129.164 14.064 128.935 14.5173 128.626 14.912C128.327 15.3067 127.948 15.6213 127.49 15.856C127.042 16.0907 126.514 16.208 125.906 16.208C125.394 16.208 124.919 16.1067 124.482 15.904C124.055 15.6907 123.703 15.3813 123.426 14.976H123.394V18.896H121.122V7.728ZM130.903 7.728H133.063V9.264H133.095C133.202 9.008 133.346 8.77333 133.527 8.56C133.708 8.336 133.916 8.14933 134.151 8C134.386 7.84 134.636 7.71733 134.903 7.632C135.17 7.54667 135.447 7.504 135.735 7.504C135.884 7.504 136.05 7.53067 136.231 7.584V9.696C136.124 9.67467 135.996 9.65867 135.847 9.648C135.698 9.62667 135.554 9.616 135.415 9.616C134.999 9.616 134.647 9.68533 134.359 9.824C134.071 9.96267 133.836 10.1547 133.655 10.4C133.484 10.6347 133.362 10.912 133.287 11.232C133.212 11.552 133.175 11.8987 133.175 12.272V16H130.903V7.728ZM138.857 11.872C138.857 12.2027 138.889 12.528 138.953 12.848C139.017 13.1573 139.123 13.44 139.273 13.696C139.433 13.9413 139.641 14.1387 139.897 14.288C140.153 14.4373 140.473 14.512 140.857 14.512C141.241 14.512 141.561 14.4373 141.817 14.288C142.083 14.1387 142.291 13.9413 142.441 13.696C142.601 13.44 142.713 13.1573 142.777 12.848C142.841 12.528 142.873 12.2027 142.873 11.872C142.873 11.5413 142.841 11.216 142.777 10.896C142.713 10.576 142.601 10.2933 142.441 10.048C142.291 9.80267 142.083 9.60533 141.817 9.456C141.561 9.296 141.241 9.216 140.857 9.216C140.473 9.216 140.153 9.296 139.897 9.456C139.641 9.60533 139.433 9.80267 139.273 10.048C139.123 10.2933 139.017 10.576 138.953 10.896C138.889 11.216 138.857 11.5413 138.857 11.872ZM136.585 11.872C136.585 11.2107 136.686 10.6133 136.889 10.08C137.091 9.536 137.379 9.07733 137.753 8.704C138.126 8.32 138.574 8.02667 139.097 7.824C139.619 7.61067 140.206 7.504 140.857 7.504C141.507 7.504 142.094 7.61067 142.617 7.824C143.15 8.02667 143.603 8.32 143.977 8.704C144.35 9.07733 144.638 9.536 144.841 10.08C145.043 10.6133 145.145 11.2107 145.145 11.872C145.145 12.5333 145.043 13.1307 144.841 13.664C144.638 14.1973 144.35 14.656 143.977 15.04C143.603 15.4133 143.15 15.7013 142.617 15.904C142.094 16.1067 141.507 16.208 140.857 16.208C140.206 16.208 139.619 16.1067 139.097 15.904C138.574 15.7013 138.126 15.4133 137.753 15.04C137.379 14.656 137.091 14.1973 136.889 13.664C136.686 13.1307 136.585 12.5333 136.585 11.872ZM150.478 14.048C150.798 14.048 151.08 13.984 151.326 13.856C151.571 13.728 151.774 13.5573 151.934 13.344C152.094 13.1307 152.211 12.8907 152.286 12.624C152.371 12.3467 152.414 12.0587 152.414 11.76C152.414 11.4187 152.382 11.0987 152.318 10.8C152.254 10.4907 152.147 10.2187 151.998 9.984C151.848 9.74933 151.651 9.56267 151.406 9.424C151.16 9.28533 150.851 9.216 150.478 9.216C150.158 9.216 149.88 9.28 149.646 9.408C149.422 9.536 149.23 9.712 149.07 9.936C148.92 10.1493 148.808 10.4 148.734 10.688C148.67 10.9653 148.638 11.2587 148.638 11.568C148.638 11.8667 148.664 12.1653 148.718 12.464C148.782 12.752 148.883 13.0133 149.022 13.248C149.171 13.4827 149.363 13.6747 149.598 13.824C149.832 13.9733 150.126 14.048 150.478 14.048ZM154.574 15.472C154.574 15.8027 154.526 16.1813 154.43 16.608C154.344 17.0347 154.152 17.4293 153.854 17.792C153.555 18.1653 153.123 18.48 152.558 18.736C151.992 18.992 151.235 19.12 150.286 19.12C149.88 19.12 149.464 19.0667 149.038 18.96C148.622 18.864 148.238 18.7093 147.886 18.496C147.544 18.2827 147.256 18.0053 147.022 17.664C146.798 17.3333 146.67 16.9333 146.638 16.464H148.894C149 16.8907 149.208 17.184 149.518 17.344C149.827 17.5147 150.184 17.6 150.59 17.6C151.23 17.6 151.694 17.408 151.982 17.024C152.28 16.64 152.424 16.1547 152.414 15.568V14.48H152.382C152.136 14.9173 151.784 15.2427 151.326 15.456C150.878 15.6587 150.403 15.76 149.902 15.76C149.283 15.76 148.75 15.6533 148.302 15.44C147.854 15.216 147.486 14.9173 147.198 14.544C146.91 14.16 146.696 13.7173 146.558 13.216C146.43 12.704 146.366 12.1653 146.366 11.6C146.366 11.0667 146.44 10.5547 146.59 10.064C146.75 9.56267 146.979 9.12533 147.278 8.752C147.576 8.368 147.944 8.064 148.382 7.84C148.83 7.616 149.342 7.504 149.918 7.504C150.462 7.504 150.936 7.60533 151.342 7.808C151.758 8.01067 152.104 8.352 152.382 8.832H152.414V7.728H154.574V15.472ZM156.403 7.728H158.563V9.264H158.595C158.702 9.008 158.846 8.77333 159.027 8.56C159.208 8.336 159.416 8.14933 159.651 8C159.886 7.84 160.136 7.71733 160.403 7.632C160.67 7.54667 160.947 7.504 161.235 7.504C161.384 7.504 161.55 7.53067 161.731 7.584V9.696C161.624 9.67467 161.496 9.65867 161.347 9.648C161.198 9.62667 161.054 9.616 160.915 9.616C160.499 9.616 160.147 9.68533 159.859 9.824C159.571 9.96267 159.336 10.1547 159.155 10.4C158.984 10.6347 158.862 10.912 158.787 11.232C158.712 11.552 158.675 11.8987 158.675 12.272V16H156.403V7.728ZM162.526 10.272C162.558 9.73867 162.691 9.296 162.926 8.944C163.16 8.592 163.459 8.30933 163.822 8.096C164.184 7.88267 164.59 7.73333 165.038 7.648C165.496 7.552 165.955 7.504 166.414 7.504C166.83 7.504 167.251 7.536 167.678 7.6C168.104 7.65333 168.494 7.76533 168.846 7.936C169.198 8.10667 169.486 8.34667 169.71 8.656C169.934 8.95467 170.046 9.35467 170.046 9.856V14.16C170.046 14.5333 170.067 14.8907 170.11 15.232C170.152 15.5733 170.227 15.8293 170.334 16H168.03C167.987 15.872 167.95 15.744 167.918 15.616C167.896 15.4773 167.88 15.3387 167.87 15.2C167.507 15.5733 167.08 15.8347 166.59 15.984C166.099 16.1333 165.598 16.208 165.086 16.208C164.691 16.208 164.323 16.16 163.982 16.064C163.64 15.968 163.342 15.8187 163.086 15.616C162.83 15.4133 162.627 15.1573 162.478 14.848C162.339 14.5387 162.27 14.1707 162.27 13.744C162.27 13.2747 162.35 12.8907 162.51 12.592C162.68 12.2827 162.894 12.0373 163.15 11.856C163.416 11.6747 163.715 11.5413 164.046 11.456C164.387 11.36 164.728 11.2853 165.07 11.232C165.411 11.1787 165.747 11.136 166.078 11.104C166.408 11.072 166.702 11.024 166.958 10.96C167.214 10.896 167.416 10.8053 167.566 10.688C167.715 10.56 167.784 10.3787 167.774 10.144C167.774 9.89867 167.731 9.70667 167.646 9.568C167.571 9.41867 167.464 9.30667 167.326 9.232C167.198 9.14667 167.043 9.09333 166.862 9.072C166.691 9.04 166.504 9.024 166.302 9.024C165.854 9.024 165.502 9.12 165.246 9.312C164.99 9.504 164.84 9.824 164.798 10.272H162.526ZM167.774 11.952C167.678 12.0373 167.555 12.1067 167.406 12.16C167.267 12.2027 167.112 12.24 166.942 12.272C166.782 12.304 166.611 12.3307 166.43 12.352C166.248 12.3733 166.067 12.4 165.886 12.432C165.715 12.464 165.544 12.5067 165.374 12.56C165.214 12.6133 165.07 12.688 164.942 12.784C164.824 12.8693 164.728 12.9813 164.654 13.12C164.579 13.2587 164.542 13.4347 164.542 13.648C164.542 13.8507 164.579 14.0213 164.654 14.16C164.728 14.2987 164.83 14.4107 164.958 14.496C165.086 14.5707 165.235 14.624 165.406 14.656C165.576 14.688 165.752 14.704 165.934 14.704C166.382 14.704 166.728 14.6293 166.974 14.48C167.219 14.3307 167.4 14.1547 167.518 13.952C167.635 13.7387 167.704 13.5253 167.726 13.312C167.758 13.0987 167.774 12.928 167.774 12.8V11.952ZM171.873 7.728H174.017V8.848H174.049C174.348 8.42133 174.705 8.09067 175.121 7.856C175.548 7.62133 176.033 7.504 176.577 7.504C177.1 7.504 177.575 7.60533 178.001 7.808C178.439 8.01067 178.769 8.368 178.993 8.88C179.239 8.51733 179.569 8.19733 179.985 7.92C180.412 7.64267 180.913 7.504 181.489 7.504C181.927 7.504 182.332 7.55733 182.705 7.664C183.079 7.77067 183.399 7.94133 183.665 8.176C183.932 8.41067 184.14 8.72 184.289 9.104C184.439 9.47733 184.513 9.93067 184.513 10.464V16H182.241V11.312C182.241 11.0347 182.231 10.7733 182.209 10.528C182.188 10.2827 182.129 10.0693 182.033 9.888C181.937 9.70667 181.793 9.56267 181.601 9.456C181.42 9.34933 181.169 9.296 180.849 9.296C180.529 9.296 180.268 9.36 180.065 9.488C179.873 9.60533 179.719 9.76533 179.601 9.968C179.495 10.16 179.42 10.384 179.377 10.64C179.345 10.8853 179.329 11.136 179.329 11.392V16H177.057V11.36C177.057 11.1147 177.052 10.8747 177.041 10.64C177.031 10.3947 176.983 10.1707 176.897 9.968C176.823 9.76533 176.689 9.60533 176.497 9.488C176.316 9.36 176.044 9.296 175.681 9.296C175.575 9.296 175.431 9.32267 175.249 9.376C175.079 9.41867 174.908 9.50933 174.737 9.648C174.577 9.776 174.439 9.968 174.321 10.224C174.204 10.4693 174.145 10.7947 174.145 11.2V16H171.873V7.728Z" fill="white"/>
<path fill-rule="evenodd" clip-rule="evenodd" d="M27.6357 38.4043C24.527 38.4043 22 35.8772 22 32.7685C22 29.6599 24.527 27.1328 27.6357 27.1328C29.0612 27.1328 30.3989 27.6506 31.4411 28.6059C31.0945 28.8109 30.7599 29.038 30.4382 29.2837C29.6485 28.6466 28.6666 28.2959 27.6357 28.2959C25.172 28.2959 23.1631 30.3049 23.1631 32.7685C23.1631 35.2322 25.172 37.2412 27.6357 37.2412C31.0636 37.2412 33.0988 33.577 31.6244 30.728C31.8479 30.5202 32.0779 30.3188 32.314 30.1241C32.3836 30.0666 32.4539 30.0097 32.5248 29.9533C33.018 30.8051 33.2715 31.771 33.2715 32.7685C33.2714 35.8772 30.7444 38.4043 27.6357 38.4043Z" fill="#00D103"/>
<path fill-rule="evenodd" clip-rule="evenodd" d="M27.7837 35.6655C27.7203 35.6655 27.6674 35.6232 27.6463 35.5703C27.6357 35.5492 26.7263 33.2018 25.3201 32.3136C25.0451 32.1445 24.8337 31.9647 24.9183 31.5629C25.0029 31.1717 25.2672 30.9496 25.743 30.8439C26.5889 30.6641 27.4982 31.9753 27.8366 32.5145C29.0208 30.791 31.3893 28.0842 34.8363 27.767C35.0026 27.7475 35.064 27.994 34.9103 28.063C34.8574 28.0842 29.9301 30.3364 27.9317 35.5809C27.9 35.6337 27.8471 35.6655 27.7837 35.6655Z" fill="#00D103"/>
<path fill-rule="evenodd" clip-rule="evenodd" d="M27.6357 59.4043C24.527 59.4043 22 56.8772 22 53.7685C22 50.6599 24.527 48.1328 27.6357 48.1328C29.0612 48.1328 30.3989 48.6506 31.4411 49.6059C31.0945 49.8109 30.7599 50.038 30.4382 50.2837C29.6485 49.6466 28.6666 49.2959 27.6357 49.2959C25.172 49.2959 23.1631 51.3049 23.1631 53.7685C23.1631 56.2322 25.172 58.2412 27.6357 58.2412C31.0636 58.2412 33.0988 54.577 31.6244 51.728C31.8479 51.5202 32.0779 51.3188 32.314 51.1241C32.3836 51.0666 32.4539 51.0097 32.5248 50.9533C33.018 51.8051 33.2715 52.771 33.2715 53.7685C33.2714 56.8772 30.7444 59.4043 27.6357 59.4043Z" fill="#00D103"/>
<path fill-rule="evenodd" clip-rule="evenodd" d="M27.7837 56.6655C27.7203 56.6655 27.6674 56.6232 27.6463 56.5703C27.6357 56.5492 26.7263 54.2018 25.3201 53.3136C25.0451 53.1445 24.8337 52.9647 24.9183 52.5629C25.0029 52.1717 25.2672 51.9496 25.743 51.8439C26.5889 51.6641 27.4982 52.9753 27.8366 53.5145C29.0208 51.791 31.3893 49.0842 34.8363 48.767C35.0026 48.7475 35.064 48.994 34.9103 49.063C34.8574 49.0842 29.9301 51.3364 27.9317 56.5809C27.9 56.6337 27.8471 56.6655 27.7837 56.6655Z" fill="#00D103"/>
<path d="M40.072 27.576H41.432V31.848H41.464C41.688 31.3893 42.04 31.0587 42.52 30.856C43 30.6427 43.528 30.536 44.104 30.536C44.744 30.536 45.2987 30.6533 45.768 30.888C46.248 31.1227 46.6427 31.4427 46.952 31.848C47.272 32.2427 47.512 32.7013 47.672 33.224C47.832 33.7467 47.912 34.3013 47.912 34.888C47.912 35.4747 47.832 36.0293 47.672 36.552C47.5227 37.0747 47.288 37.5333 46.968 37.928C46.6587 38.312 46.264 38.616 45.784 38.84C45.3147 39.064 44.7653 39.176 44.136 39.176C43.9333 39.176 43.704 39.1547 43.448 39.112C43.2027 39.0693 42.9573 39 42.712 38.904C42.4667 38.808 42.232 38.68 42.008 38.52C41.7947 38.3493 41.6133 38.1413 41.464 37.896H41.432V39H40.072V27.576ZM46.472 34.792C46.472 34.408 46.4187 34.0347 46.312 33.672C46.216 33.2987 46.0613 32.968 45.848 32.68C45.6453 32.392 45.3787 32.1627 45.048 31.992C44.728 31.8213 44.3493 31.736 43.912 31.736C43.4533 31.736 43.064 31.8267 42.744 32.008C42.424 32.1893 42.1627 32.4293 41.96 32.728C41.7573 33.016 41.608 33.3467 41.512 33.72C41.4267 34.0933 41.384 34.472 41.384 34.856C41.384 35.2613 41.432 35.656 41.528 36.04C41.624 36.4133 41.7733 36.744 41.976 37.032C42.1893 37.32 42.4613 37.5547 42.792 37.736C43.1227 37.9067 43.5227 37.992 43.992 37.992C44.4613 37.992 44.8507 37.9013 45.16 37.72C45.48 37.5387 45.736 37.2987 45.928 37C46.12 36.7013 46.2587 36.36 46.344 35.976C46.4293 35.592 46.472 35.1973 46.472 34.792ZM55.2524 34.072C55.231 33.752 55.1564 33.448 55.0284 33.16C54.911 32.872 54.7457 32.6267 54.5324 32.424C54.3297 32.2107 54.0844 32.0453 53.7964 31.928C53.519 31.8 53.2097 31.736 52.8684 31.736C52.5164 31.736 52.1964 31.8 51.9084 31.928C51.631 32.0453 51.391 32.2107 51.1884 32.424C50.9857 32.6373 50.8257 32.888 50.7084 33.176C50.591 33.4533 50.5217 33.752 50.5004 34.072H55.2524ZM56.5644 36.376C56.383 37.304 55.983 38.0027 55.3644 38.472C54.7457 38.9413 53.967 39.176 53.0284 39.176C52.367 39.176 51.791 39.0693 51.3004 38.856C50.8204 38.6427 50.415 38.344 50.0844 37.96C49.7537 37.576 49.503 37.1173 49.3324 36.584C49.1724 36.0507 49.0817 35.4693 49.0604 34.84C49.0604 34.2107 49.1564 33.6347 49.3484 33.112C49.5404 32.5893 49.807 32.136 50.1484 31.752C50.5004 31.368 50.911 31.0693 51.3804 30.856C51.8604 30.6427 52.383 30.536 52.9484 30.536C53.6844 30.536 54.2924 30.6907 54.7724 31C55.263 31.2987 55.6524 31.6827 55.9404 32.152C56.239 32.6213 56.4417 33.1333 56.5484 33.688C56.6657 34.2427 56.7137 34.7707 56.6924 35.272H50.5004C50.4897 35.6347 50.5324 35.9813 50.6284 36.312C50.7244 36.632 50.879 36.92 51.0924 37.176C51.3057 37.4213 51.5777 37.6187 51.9084 37.768C52.239 37.9173 52.6284 37.992 53.0764 37.992C53.6524 37.992 54.1217 37.8587 54.4844 37.592C54.8577 37.3253 55.103 36.92 55.2204 36.376H56.5644ZM65.2381 38.296C65.2381 39.6507 64.9288 40.664 64.3101 41.336C63.6915 42.008 62.7208 42.344 61.3981 42.344C61.0141 42.344 60.6195 42.3013 60.2141 42.216C59.8195 42.1307 59.4568 41.992 59.1261 41.8C58.8061 41.608 58.5395 41.3573 58.3261 41.048C58.1128 40.7387 57.9955 40.36 57.9741 39.912H59.3341C59.3448 40.1573 59.4195 40.3653 59.5581 40.536C59.7075 40.7067 59.8835 40.8453 60.0861 40.952C60.2995 41.0587 60.5288 41.1333 60.7741 41.176C61.0195 41.2293 61.2541 41.256 61.4781 41.256C61.9261 41.256 62.3048 41.176 62.6141 41.016C62.9235 40.8667 63.1795 40.6533 63.3821 40.376C63.5848 40.1093 63.7288 39.784 63.8141 39.4C63.9101 39.016 63.9581 38.5947 63.9581 38.136V37.592H63.9261C63.6915 38.104 63.3341 38.4827 62.8541 38.728C62.3848 38.9627 61.8835 39.08 61.3501 39.08C60.7315 39.08 60.1928 38.968 59.7341 38.744C59.2755 38.52 58.8915 38.2213 58.5821 37.848C58.2728 37.464 58.0381 37.0213 57.8781 36.52C57.7288 36.008 57.6541 35.4693 57.6541 34.904C57.6541 34.4133 57.7181 33.912 57.8461 33.4C57.9741 32.8773 58.1875 32.408 58.4861 31.992C58.7848 31.5653 59.1795 31.2187 59.6701 30.952C60.1608 30.6747 60.7635 30.536 61.4781 30.536C62.0008 30.536 62.4808 30.6533 62.9181 30.888C63.3555 31.112 63.6968 31.4533 63.9421 31.912H63.9581V30.728H65.2381V38.296ZM61.4301 37.896C61.8781 37.896 62.2568 37.8053 62.5661 37.624C62.8861 37.432 63.1421 37.1867 63.3341 36.888C63.5261 36.5787 63.6648 36.232 63.7501 35.848C63.8461 35.464 63.8941 35.08 63.8941 34.696C63.8941 34.3333 63.8515 33.976 63.7661 33.624C63.6808 33.272 63.5421 32.9573 63.3501 32.68C63.1688 32.392 62.9288 32.1627 62.6301 31.992C62.3315 31.8213 61.9688 31.736 61.5421 31.736C61.1048 31.736 60.7315 31.8213 60.4221 31.992C60.1128 32.152 59.8568 32.3707 59.6541 32.648C59.4621 32.9253 59.3181 33.2453 59.2221 33.608C59.1368 33.9707 59.0941 34.3493 59.0941 34.744C59.0941 35.1173 59.1315 35.4907 59.2061 35.864C59.2808 36.2373 59.4088 36.5787 59.5901 36.888C59.7715 37.1867 60.0115 37.432 60.3101 37.624C60.6088 37.8053 60.9821 37.896 61.4301 37.896ZM68.7296 29.24H67.3696V27.576H68.7296V29.24ZM67.3696 30.728H68.7296V39H67.3696V30.728ZM70.8365 30.728H72.1165V32.04H72.1485C72.7138 31.0373 73.6098 30.536 74.8365 30.536C75.3805 30.536 75.8338 30.6107 76.1965 30.76C76.5592 30.9093 76.8525 31.1173 77.0765 31.384C77.3005 31.6507 77.4552 31.9707 77.5405 32.344C77.6365 32.7067 77.6845 33.112 77.6845 33.56V39H76.3245V33.4C76.3245 32.888 76.1752 32.4827 75.8765 32.184C75.5778 31.8853 75.1672 31.736 74.6445 31.736C74.2285 31.736 73.8658 31.8 73.5565 31.928C73.2578 32.056 73.0072 32.2373 72.8045 32.472C72.6018 32.7067 72.4472 32.984 72.3405 33.304C72.2445 33.6133 72.1965 33.9547 72.1965 34.328V39H70.8365V30.728ZM79.7271 30.728H81.0071V32.04H81.0391C81.6045 31.0373 82.5005 30.536 83.7271 30.536C84.2711 30.536 84.7245 30.6107 85.0871 30.76C85.4498 30.9093 85.7431 31.1173 85.9671 31.384C86.1911 31.6507 86.3458 31.9707 86.4311 32.344C86.5271 32.7067 86.5751 33.112 86.5751 33.56V39H85.2151V33.4C85.2151 32.888 85.0658 32.4827 84.7671 32.184C84.4685 31.8853 84.0578 31.736 83.5351 31.736C83.1191 31.736 82.7565 31.8 82.4471 31.928C82.1485 32.056 81.8978 32.2373 81.6951 32.472C81.4925 32.7067 81.3378 32.984 81.2311 33.304C81.1351 33.6133 81.0871 33.9547 81.0871 34.328V39H79.7271V30.728ZM94.3618 34.072C94.3404 33.752 94.2658 33.448 94.1378 33.16C94.0204 32.872 93.8551 32.6267 93.6418 32.424C93.4391 32.2107 93.1938 32.0453 92.9058 31.928C92.6284 31.8 92.3191 31.736 91.9778 31.736C91.6258 31.736 91.3058 31.8 91.0178 31.928C90.7404 32.0453 90.5004 32.2107 90.2978 32.424C90.0951 32.6373 89.9351 32.888 89.8178 33.176C89.7004 33.4533 89.6311 33.752 89.6098 34.072H94.3618ZM95.6737 36.376C95.4924 37.304 95.0924 38.0027 94.4738 38.472C93.8551 38.9413 93.0764 39.176 92.1378 39.176C91.4764 39.176 90.9004 39.0693 90.4098 38.856C89.9298 38.6427 89.5244 38.344 89.1938 37.96C88.8631 37.576 88.6124 37.1173 88.4418 36.584C88.2818 36.0507 88.1911 35.4693 88.1698 34.84C88.1698 34.2107 88.2658 33.6347 88.4578 33.112C88.6498 32.5893 88.9164 32.136 89.2578 31.752C89.6098 31.368 90.0204 31.0693 90.4898 30.856C90.9698 30.6427 91.4924 30.536 92.0578 30.536C92.7938 30.536 93.4018 30.6907 93.8818 31C94.3724 31.2987 94.7618 31.6827 95.0498 32.152C95.3484 32.6213 95.5511 33.1333 95.6578 33.688C95.7751 34.2427 95.8231 34.7707 95.8018 35.272H89.6098C89.5991 35.6347 89.6418 35.9813 89.7378 36.312C89.8338 36.632 89.9884 36.92 90.2018 37.176C90.4151 37.4213 90.6871 37.6187 91.0178 37.768C91.3484 37.9173 91.7378 37.992 92.1858 37.992C92.7618 37.992 93.2311 37.8587 93.5938 37.592C93.9671 37.3253 94.2124 36.92 94.3298 36.376H95.6737ZM97.1635 30.728H98.4435V32.472H98.4755C98.8062 31.8 99.2115 31.304 99.6915 30.984C100.172 30.664 100.78 30.5147 101.516 30.536V31.976C100.972 31.976 100.508 32.0507 100.124 32.2C99.7395 32.3493 99.4302 32.568 99.1955 32.856C98.9608 33.144 98.7902 33.496 98.6835 33.912C98.5768 34.3173 98.5235 34.7867 98.5235 35.32V39H97.1635V30.728ZM106.993 30.728H108.273V31.944H108.305C108.923 31.0053 109.814 30.536 110.977 30.536C111.489 30.536 111.953 30.6427 112.369 30.856C112.785 31.0693 113.078 31.432 113.249 31.944C113.526 31.496 113.889 31.1493 114.337 30.904C114.795 30.6587 115.297 30.536 115.841 30.536C116.257 30.536 116.63 30.584 116.961 30.68C117.302 30.7653 117.59 30.904 117.825 31.096C118.07 31.288 118.257 31.5387 118.385 31.848C118.523 32.1467 118.593 32.5093 118.593 32.936V39H117.233V33.576C117.233 33.32 117.211 33.08 117.169 32.856C117.126 32.632 117.046 32.44 116.929 32.28C116.811 32.1093 116.646 31.976 116.433 31.88C116.23 31.784 115.963 31.736 115.633 31.736C114.961 31.736 114.433 31.928 114.049 32.312C113.665 32.696 113.473 33.208 113.473 33.848V39H112.113V33.576C112.113 33.3093 112.086 33.064 112.033 32.84C111.99 32.616 111.91 32.424 111.793 32.264C111.675 32.0933 111.515 31.9653 111.313 31.88C111.121 31.784 110.87 31.736 110.561 31.736C110.166 31.736 109.825 31.816 109.537 31.976C109.259 32.136 109.03 32.328 108.849 32.552C108.678 32.776 108.55 33.0107 108.465 33.256C108.39 33.4907 108.353 33.688 108.353 33.848V39H106.993V30.728ZM121.625 34.872C121.625 35.3733 121.689 35.8213 121.817 36.216C121.956 36.6 122.143 36.9253 122.377 37.192C122.612 37.448 122.884 37.6453 123.193 37.784C123.513 37.9227 123.849 37.992 124.201 37.992C124.553 37.992 124.884 37.9227 125.193 37.784C125.513 37.6453 125.791 37.448 126.025 37.192C126.26 36.9253 126.441 36.6 126.569 36.216C126.708 35.8213 126.777 35.3733 126.777 34.872C126.777 34.3707 126.708 33.928 126.569 33.544C126.441 33.1493 126.26 32.8187 126.025 32.552C125.791 32.2853 125.513 32.0827 125.193 31.944C124.884 31.8053 124.553 31.736 124.201 31.736C123.849 31.736 123.513 31.8053 123.193 31.944C122.884 32.0827 122.612 32.2853 122.377 32.552C122.143 32.8187 121.956 33.1493 121.817 33.544C121.689 33.928 121.625 34.3707 121.625 34.872ZM120.185 34.872C120.185 34.264 120.271 33.6987 120.441 33.176C120.612 32.6427 120.868 32.184 121.209 31.8C121.551 31.4053 121.972 31.096 122.473 30.872C122.975 30.648 123.551 30.536 124.201 30.536C124.863 30.536 125.439 30.648 125.929 30.872C126.431 31.096 126.852 31.4053 127.193 31.8C127.535 32.184 127.791 32.6427 127.961 33.176C128.132 33.6987 128.217 34.264 128.217 34.872C128.217 35.48 128.132 36.0453 127.961 36.568C127.791 37.0907 127.535 37.5493 127.193 37.944C126.852 38.328 126.431 38.632 125.929 38.856C125.439 39.0693 124.863 39.176 124.201 39.176C123.551 39.176 122.975 39.0693 122.473 38.856C121.972 38.632 121.551 38.328 121.209 37.944C120.868 37.5493 120.612 37.0907 120.441 36.568C120.271 36.0453 120.185 35.48 120.185 34.872ZM129.869 27.576H131.229V31.848H131.261C131.485 31.3893 131.837 31.0587 132.317 30.856C132.797 30.6427 133.325 30.536 133.901 30.536C134.541 30.536 135.096 30.6533 135.565 30.888C136.045 31.1227 136.44 31.4427 136.749 31.848C137.069 32.2427 137.309 32.7013 137.469 33.224C137.629 33.7467 137.709 34.3013 137.709 34.888C137.709 35.4747 137.629 36.0293 137.469 36.552C137.32 37.0747 137.085 37.5333 136.765 37.928C136.456 38.312 136.061 38.616 135.581 38.84C135.112 39.064 134.562 39.176 133.933 39.176C133.73 39.176 133.501 39.1547 133.245 39.112C133 39.0693 132.754 39 132.509 38.904C132.264 38.808 132.029 38.68 131.805 38.52C131.592 38.3493 131.41 38.1413 131.261 37.896H131.229V39H129.869V27.576ZM136.269 34.792C136.269 34.408 136.216 34.0347 136.109 33.672C136.013 33.2987 135.858 32.968 135.645 32.68C135.442 32.392 135.176 32.1627 134.845 31.992C134.525 31.8213 134.146 31.736 133.709 31.736C133.25 31.736 132.861 31.8267 132.541 32.008C132.221 32.1893 131.96 32.4293 131.757 32.728C131.554 33.016 131.405 33.3467 131.309 33.72C131.224 34.0933 131.181 34.472 131.181 34.856C131.181 35.2613 131.229 35.656 131.325 36.04C131.421 36.4133 131.57 36.744 131.773 37.032C131.986 37.32 132.258 37.5547 132.589 37.736C132.92 37.9067 133.32 37.992 133.789 37.992C134.258 37.992 134.648 37.9013 134.957 37.72C135.277 37.5387 135.533 37.2987 135.725 37C135.917 36.7013 136.056 36.36 136.141 35.976C136.226 35.592 136.269 35.1973 136.269 34.792ZM140.745 29.24H139.385V27.576H140.745V29.24ZM139.385 30.728H140.745V39H139.385V30.728ZM142.932 27.576H144.292V39H142.932V27.576ZM147.839 29.24H146.479V27.576H147.839V29.24ZM146.479 30.728H147.839V39H146.479V30.728ZM151.834 30.728H153.482V31.928H151.834V37.064C151.834 37.224 151.845 37.352 151.866 37.448C151.898 37.544 151.951 37.6187 152.026 37.672C152.101 37.7253 152.202 37.7627 152.33 37.784C152.469 37.7947 152.645 37.8 152.858 37.8H153.482V39H152.442C152.09 39 151.786 38.9787 151.53 38.936C151.285 38.8827 151.082 38.792 150.922 38.664C150.773 38.536 150.661 38.3547 150.586 38.12C150.511 37.8853 150.474 37.576 150.474 37.192V31.928H149.066V30.728H150.474V28.248H151.834V30.728ZM158.241 40.104C158.081 40.5093 157.921 40.8507 157.761 41.128C157.611 41.4053 157.441 41.6293 157.249 41.8C157.067 41.9813 156.859 42.1093 156.625 42.184C156.401 42.2693 156.139 42.312 155.841 42.312C155.681 42.312 155.521 42.3013 155.361 42.28C155.201 42.2587 155.046 42.2213 154.897 42.168V40.92C155.014 40.9733 155.147 41.016 155.297 41.048C155.457 41.0907 155.59 41.112 155.697 41.112C155.974 41.112 156.203 41.0427 156.385 40.904C156.577 40.776 156.721 40.5893 156.817 40.344L157.377 38.952L154.097 30.728H155.633L158.049 37.496H158.081L160.401 30.728H161.841L158.241 40.104ZM40.584 50.928H39.192V49.728H40.584V48.496C40.584 47.824 40.776 47.3173 41.16 46.976C41.5547 46.624 42.1253 46.448 42.872 46.448C43 46.448 43.144 46.4587 43.304 46.48C43.4747 46.5013 43.624 46.5333 43.752 46.576V47.76C43.6347 47.7173 43.5067 47.6907 43.368 47.68C43.2293 47.6587 43.1013 47.648 42.984 47.648C42.6533 47.648 42.3973 47.712 42.216 47.84C42.0347 47.968 41.944 48.2133 41.944 48.576V49.728H43.544V50.928H41.944V58H40.584V50.928ZM44.7104 49.728H45.9904V51.472H46.0224C46.353 50.8 46.7584 50.304 47.2384 49.984C47.7184 49.664 48.3264 49.5147 49.0624 49.536V50.976C48.5184 50.976 48.0544 51.0507 47.6704 51.2C47.2864 51.3493 46.977 51.568 46.7424 51.856C46.5077 52.144 46.337 52.496 46.2304 52.912C46.1237 53.3173 46.0704 53.7867 46.0704 54.32V58H44.7104V49.728ZM50.7973 53.872C50.7973 54.3733 50.8613 54.8213 50.9893 55.216C51.1279 55.6 51.3146 55.9253 51.5493 56.192C51.7839 56.448 52.0559 56.6453 52.3653 56.784C52.6853 56.9227 53.0213 56.992 53.3733 56.992C53.7253 56.992 54.0559 56.9227 54.3653 56.784C54.6853 56.6453 54.9626 56.448 55.1973 56.192C55.4319 55.9253 55.6133 55.6 55.7413 55.216C55.8799 54.8213 55.9493 54.3733 55.9493 53.872C55.9493 53.3707 55.8799 52.928 55.7413 52.544C55.6133 52.1493 55.4319 51.8187 55.1973 51.552C54.9626 51.2853 54.6853 51.0827 54.3653 50.944C54.0559 50.8053 53.7253 50.736 53.3733 50.736C53.0213 50.736 52.6853 50.8053 52.3653 50.944C52.0559 51.0827 51.7839 51.2853 51.5493 51.552C51.3146 51.8187 51.1279 52.1493 50.9893 52.544C50.8613 52.928 50.7973 53.3707 50.7973 53.872ZM49.3573 53.872C49.3573 53.264 49.4426 52.6987 49.6133 52.176C49.7839 51.6427 50.0399 51.184 50.3813 50.8C50.7226 50.4053 51.1439 50.096 51.6453 49.872C52.1466 49.648 52.7226 49.536 53.3733 49.536C54.0346 49.536 54.6106 49.648 55.1013 49.872C55.6026 50.096 56.0239 50.4053 56.3653 50.8C56.7066 51.184 56.9626 51.6427 57.1333 52.176C57.3039 52.6987 57.3893 53.264 57.3893 53.872C57.3893 54.48 57.3039 55.0453 57.1333 55.568C56.9626 56.0907 56.7066 56.5493 56.3653 56.944C56.0239 57.328 55.6026 57.632 55.1013 57.856C54.6106 58.0693 54.0346 58.176 53.3733 58.176C52.7226 58.176 52.1466 58.0693 51.6453 57.856C51.1439 57.632 50.7226 57.328 50.3813 56.944C50.0399 56.5493 49.7839 56.0907 49.6133 55.568C49.4426 55.0453 49.3573 54.48 49.3573 53.872ZM58.9928 49.728H60.2728V51.04H60.3048C60.8701 50.0373 61.7661 49.536 62.9928 49.536C63.5368 49.536 63.9901 49.6107 64.3528 49.76C64.7154 49.9093 65.0088 50.1173 65.2328 50.384C65.4568 50.6507 65.6114 50.9707 65.6968 51.344C65.7928 51.7067 65.8408 52.112 65.8408 52.56V58H64.4808V52.4C64.4808 51.888 64.3314 51.4827 64.0328 51.184C63.7341 50.8853 63.3234 50.736 62.8008 50.736C62.3848 50.736 62.0221 50.8 61.7128 50.928C61.4141 51.056 61.1634 51.2373 60.9608 51.472C60.7581 51.7067 60.6034 51.984 60.4968 52.304C60.4008 52.6133 60.3528 52.9547 60.3528 53.328V58H58.9928V49.728ZM69.7714 49.728H71.4194V50.928H69.7714V56.064C69.7714 56.224 69.782 56.352 69.8034 56.448C69.8354 56.544 69.8887 56.6187 69.9634 56.672C70.038 56.7253 70.1394 56.7627 70.2674 56.784C70.406 56.7947 70.582 56.8 70.7954 56.8H71.4194V58H70.3794C70.0274 58 69.7234 57.9787 69.4674 57.936C69.222 57.8827 69.0194 57.792 68.8594 57.664C68.71 57.536 68.598 57.3547 68.5234 57.12C68.4487 56.8853 68.4114 56.576 68.4114 56.192V50.928H67.0034V49.728H68.4114V47.248H69.7714V49.728ZM76.3063 50.976C76.4663 50.8693 76.6369 50.752 76.8183 50.624C76.9996 50.496 77.1649 50.352 77.3143 50.192C77.4636 50.032 77.5863 49.856 77.6823 49.664C77.7783 49.4613 77.8263 49.2373 77.8263 48.992C77.8263 48.6613 77.7089 48.3787 77.4743 48.144C77.2396 47.8987 76.9196 47.776 76.5143 47.776C76.1943 47.776 75.8956 47.8773 75.6183 48.08C75.3409 48.272 75.2023 48.576 75.2023 48.992C75.2023 49.1627 75.2343 49.3333 75.2983 49.504C75.3729 49.6747 75.4636 49.8453 75.5703 50.016C75.6769 50.176 75.7943 50.336 75.9223 50.496C76.0503 50.656 76.1783 50.816 76.3063 50.976ZM79.2343 56.576C78.8929 57.1093 78.4236 57.5093 77.8263 57.776C77.2396 58.0427 76.6316 58.176 76.0023 58.176C75.2343 58.176 74.6156 58.0587 74.1463 57.824C73.6769 57.5893 73.3143 57.3067 73.0583 56.976C72.8023 56.6453 72.6316 56.304 72.5463 55.952C72.4716 55.6 72.4342 55.3067 72.4342 55.072C72.4342 54.624 72.5036 54.2293 72.6423 53.888C72.7916 53.5467 72.9836 53.2427 73.2183 52.976C73.4636 52.6987 73.7463 52.4533 74.0663 52.24C74.3969 52.016 74.7436 51.808 75.1063 51.616C74.9463 51.392 74.7916 51.1787 74.6423 50.976C74.4929 50.7733 74.3543 50.5707 74.2263 50.368C74.1089 50.1547 74.0129 49.936 73.9383 49.712C73.8743 49.4773 73.8423 49.216 73.8423 48.928C73.8423 48.6187 73.8956 48.3253 74.0023 48.048C74.1196 47.76 74.2849 47.5093 74.4983 47.296C74.7223 47.072 74.9943 46.896 75.3143 46.768C75.6343 46.64 76.0023 46.576 76.4183 46.576C76.7703 46.576 77.1116 46.624 77.4423 46.72C77.7836 46.816 78.0823 46.9653 78.3383 47.168C78.5943 47.36 78.7969 47.6053 78.9463 47.904C79.1063 48.192 79.1863 48.528 79.1863 48.912C79.1863 49.2533 79.1276 49.5733 79.0103 49.872C78.8929 50.16 78.7329 50.4267 78.5303 50.672C78.3276 50.9173 78.0983 51.1413 77.8423 51.344C77.5863 51.536 77.3196 51.712 77.0423 51.872L79.1063 54.384C79.3196 53.7867 79.4423 53.1947 79.4743 52.608H80.7703C80.7383 52.9493 80.7009 53.2427 80.6583 53.488C80.6263 53.7227 80.5783 53.9413 80.5143 54.144C80.4609 54.3467 80.3916 54.5493 80.3063 54.752C80.2209 54.944 80.1196 55.168 80.0023 55.424L82.2263 58H80.4503L79.2343 56.576ZM75.8583 52.48C75.5916 52.6293 75.3356 52.784 75.0903 52.944C74.8556 53.104 74.6476 53.2853 74.4663 53.488C74.2849 53.6907 74.1409 53.92 74.0343 54.176C73.9276 54.4213 73.8743 54.7147 73.8743 55.056C73.8743 55.344 73.9329 55.6107 74.0503 55.856C74.1783 56.0907 74.3436 56.2933 74.5463 56.464C74.7489 56.624 74.9783 56.752 75.2343 56.848C75.5009 56.944 75.7729 56.992 76.0503 56.992C76.5729 56.992 77.0369 56.8693 77.4423 56.624C77.8583 56.3787 78.2049 56.048 78.4823 55.632L75.8583 52.48ZM83.0084 49.728H84.2884V50.944H84.3204C84.939 50.0053 85.8297 49.536 86.9924 49.536C87.5044 49.536 87.9684 49.6427 88.3844 49.856C88.8004 50.0693 89.0937 50.432 89.2644 50.944C89.5417 50.496 89.9044 50.1493 90.3524 49.904C90.811 49.6587 91.3124 49.536 91.8564 49.536C92.2724 49.536 92.6457 49.584 92.9764 49.68C93.3177 49.7653 93.6057 49.904 93.8404 50.096C94.0857 50.288 94.2724 50.5387 94.4004 50.848C94.539 51.1467 94.6084 51.5093 94.6084 51.936V58H93.2484V52.576C93.2484 52.32 93.227 52.08 93.1844 51.856C93.1417 51.632 93.0617 51.44 92.9444 51.28C92.827 51.1093 92.6617 50.976 92.4484 50.88C92.2457 50.784 91.979 50.736 91.6484 50.736C90.9764 50.736 90.4484 50.928 90.0644 51.312C89.6804 51.696 89.4884 52.208 89.4884 52.848V58H88.1284V52.576C88.1284 52.3093 88.1017 52.064 88.0484 51.84C88.0057 51.616 87.9257 51.424 87.8084 51.264C87.691 51.0933 87.531 50.9653 87.3284 50.88C87.1364 50.784 86.8857 50.736 86.5764 50.736C86.1817 50.736 85.8404 50.816 85.5524 50.976C85.275 51.136 85.0457 51.328 84.8644 51.552C84.6937 51.776 84.5657 52.0107 84.4804 52.256C84.4057 52.4907 84.3684 52.688 84.3684 52.848V58H83.0084V49.728ZM98.089 48.24H96.729V46.576H98.089V48.24ZM96.729 49.728H98.089V58H96.729V49.728ZM101.188 53.936C101.188 54.32 101.236 54.6987 101.332 55.072C101.439 55.4347 101.593 55.76 101.796 56.048C102.009 56.336 102.276 56.5653 102.596 56.736C102.927 56.9067 103.311 56.992 103.748 56.992C104.207 56.992 104.596 56.9013 104.916 56.72C105.236 56.5387 105.497 56.304 105.7 56.016C105.903 55.7173 106.047 55.3813 106.132 55.008C106.228 54.6347 106.276 54.256 106.276 53.872C106.276 53.4667 106.228 53.0773 106.132 52.704C106.036 52.32 105.881 51.984 105.668 51.696C105.465 51.408 105.199 51.1787 104.868 51.008C104.537 50.8267 104.137 50.736 103.668 50.736C103.209 50.736 102.82 50.8267 102.5 51.008C102.18 51.1893 101.924 51.4293 101.732 51.728C101.54 52.0267 101.401 52.368 101.316 52.752C101.231 53.136 101.188 53.5307 101.188 53.936ZM107.588 58H106.228V56.88H106.196C105.972 57.3387 105.62 57.6693 105.14 57.872C104.66 58.0747 104.132 58.176 103.556 58.176C102.916 58.176 102.356 58.0587 101.876 57.824C101.407 57.5893 101.012 57.2747 100.692 56.88C100.383 56.4853 100.148 56.0267 99.9879 55.504C99.8279 54.9813 99.7479 54.4267 99.7479 53.84C99.7479 53.2533 99.8225 52.6987 99.9719 52.176C100.132 51.6533 100.367 51.2 100.676 50.816C100.996 50.4213 101.391 50.112 101.86 49.888C102.34 49.6533 102.895 49.536 103.524 49.536C103.737 49.536 103.967 49.5573 104.212 49.6C104.457 49.6427 104.703 49.7173 104.948 49.824C105.193 49.92 105.423 50.0533 105.636 50.224C105.86 50.384 106.047 50.5867 106.196 50.832H106.228V46.576H107.588V58ZM110.672 53.936C110.672 54.32 110.72 54.6987 110.816 55.072C110.923 55.4347 111.078 55.76 111.28 56.048C111.494 56.336 111.76 56.5653 112.08 56.736C112.411 56.9067 112.795 56.992 113.232 56.992C113.691 56.992 114.08 56.9013 114.4 56.72C114.72 56.5387 114.982 56.304 115.184 56.016C115.387 55.7173 115.531 55.3813 115.616 55.008C115.712 54.6347 115.76 54.256 115.76 53.872C115.76 53.4667 115.712 53.0773 115.616 52.704C115.52 52.32 115.366 51.984 115.152 51.696C114.95 51.408 114.683 51.1787 114.352 51.008C114.022 50.8267 113.622 50.736 113.152 50.736C112.694 50.736 112.304 50.8267 111.984 51.008C111.664 51.1893 111.408 51.4293 111.216 51.728C111.024 52.0267 110.886 52.368 110.8 52.752C110.715 53.136 110.672 53.5307 110.672 53.936ZM117.072 58H115.712V56.88H115.68C115.456 57.3387 115.104 57.6693 114.624 57.872C114.144 58.0747 113.616 58.176 113.04 58.176C112.4 58.176 111.84 58.0587 111.36 57.824C110.891 57.5893 110.496 57.2747 110.176 56.88C109.867 56.4853 109.632 56.0267 109.472 55.504C109.312 54.9813 109.232 54.4267 109.232 53.84C109.232 53.2533 109.307 52.6987 109.456 52.176C109.616 51.6533 109.851 51.2 110.16 50.816C110.48 50.4213 110.875 50.112 111.344 49.888C111.824 49.6533 112.379 49.536 113.008 49.536C113.222 49.536 113.451 49.5573 113.696 49.6C113.942 49.6427 114.187 49.7173 114.432 49.824C114.678 49.92 114.907 50.0533 115.12 50.224C115.344 50.384 115.531 50.5867 115.68 50.832H115.712V46.576H117.072V58ZM119.245 46.576H120.605V58H119.245V46.576ZM128.456 53.072C128.434 52.752 128.36 52.448 128.232 52.16C128.114 51.872 127.949 51.6267 127.736 51.424C127.533 51.2107 127.288 51.0453 127 50.928C126.722 50.8 126.413 50.736 126.072 50.736C125.72 50.736 125.4 50.8 125.112 50.928C124.834 51.0453 124.594 51.2107 124.392 51.424C124.189 51.6373 124.029 51.888 123.912 52.176C123.794 52.4533 123.725 52.752 123.704 53.072H128.456ZM129.767 55.376C129.586 56.304 129.186 57.0027 128.568 57.472C127.949 57.9413 127.17 58.176 126.232 58.176C125.57 58.176 124.994 58.0693 124.504 57.856C124.024 57.6427 123.618 57.344 123.288 56.96C122.957 56.576 122.706 56.1173 122.536 55.584C122.376 55.0507 122.285 54.4693 122.264 53.84C122.264 53.2107 122.36 52.6347 122.552 52.112C122.744 51.5893 123.01 51.136 123.352 50.752C123.704 50.368 124.114 50.0693 124.584 49.856C125.064 49.6427 125.586 49.536 126.152 49.536C126.888 49.536 127.496 49.6907 127.976 50C128.466 50.2987 128.856 50.6827 129.144 51.152C129.442 51.6213 129.645 52.1333 129.752 52.688C129.869 53.2427 129.917 53.7707 129.896 54.272H123.704C123.693 54.6347 123.736 54.9813 123.832 55.312C123.928 55.632 124.082 55.92 124.296 56.176C124.509 56.4213 124.781 56.6187 125.112 56.768C125.442 56.9173 125.832 56.992 126.28 56.992C126.856 56.992 127.325 56.8587 127.688 56.592C128.061 56.3253 128.306 55.92 128.424 55.376H129.767ZM136.59 55.392C136.601 55.6907 136.67 55.9467 136.798 56.16C136.926 56.3627 137.092 56.528 137.294 56.656C137.508 56.7733 137.742 56.8587 137.998 56.912C138.265 56.9653 138.537 56.992 138.814 56.992C139.028 56.992 139.252 56.976 139.486 56.944C139.721 56.912 139.934 56.8533 140.126 56.768C140.329 56.6827 140.494 56.56 140.622 56.4C140.75 56.2293 140.814 56.016 140.814 55.76C140.814 55.408 140.681 55.1413 140.414 54.96C140.148 54.7787 139.812 54.6347 139.406 54.528C139.012 54.4107 138.58 54.3093 138.11 54.224C137.641 54.128 137.204 54 136.798 53.84C136.404 53.6693 136.073 53.4347 135.806 53.136C135.54 52.8373 135.406 52.4213 135.406 51.888C135.406 51.472 135.497 51.1147 135.678 50.816C135.87 50.5173 136.11 50.2773 136.398 50.096C136.697 49.904 137.028 49.7653 137.39 49.68C137.764 49.584 138.132 49.536 138.494 49.536C138.964 49.536 139.396 49.5787 139.79 49.664C140.185 49.7387 140.532 49.8773 140.83 50.08C141.14 50.272 141.385 50.5387 141.566 50.88C141.748 51.2107 141.854 51.6267 141.886 52.128H140.526C140.505 51.8613 140.436 51.6427 140.318 51.472C140.201 51.2907 140.052 51.1467 139.87 51.04C139.689 50.9333 139.486 50.8587 139.262 50.816C139.049 50.7627 138.83 50.736 138.606 50.736C138.404 50.736 138.196 50.752 137.982 50.784C137.78 50.816 137.593 50.8747 137.422 50.96C137.252 51.0347 137.113 51.1413 137.006 51.28C136.9 51.408 136.846 51.5787 136.846 51.792C136.846 52.0267 136.926 52.224 137.086 52.384C137.257 52.5333 137.47 52.6613 137.726 52.768C137.982 52.864 138.27 52.9493 138.59 53.024C138.91 53.088 139.23 53.1573 139.55 53.232C139.892 53.3067 140.222 53.3973 140.542 53.504C140.873 53.6107 141.161 53.7547 141.406 53.936C141.662 54.1067 141.865 54.3253 142.014 54.592C142.174 54.8587 142.254 55.1893 142.254 55.584C142.254 56.0853 142.148 56.5013 141.934 56.832C141.732 57.1627 141.46 57.4293 141.118 57.632C140.788 57.8347 140.409 57.9733 139.982 58.048C139.566 58.1333 139.15 58.176 138.734 58.176C138.276 58.176 137.838 58.128 137.422 58.032C137.006 57.936 136.638 57.7813 136.318 57.568C135.998 57.344 135.742 57.056 135.55 56.704C135.358 56.3413 135.252 55.904 135.23 55.392H136.59ZM143.806 49.728H145.166V50.848H145.198C145.422 50.3893 145.774 50.0587 146.254 49.856C146.734 49.6427 147.262 49.536 147.838 49.536C148.478 49.536 149.033 49.6533 149.502 49.888C149.982 50.1227 150.377 50.4427 150.686 50.848C151.006 51.2427 151.246 51.7013 151.406 52.224C151.566 52.7467 151.646 53.3013 151.646 53.888C151.646 54.4747 151.566 55.0293 151.406 55.552C151.257 56.0747 151.022 56.5333 150.702 56.928C150.393 57.312 149.998 57.616 149.518 57.84C149.049 58.064 148.5 58.176 147.87 58.176C147.668 58.176 147.438 58.1547 147.182 58.112C146.937 58.0693 146.692 58 146.446 57.904C146.201 57.808 145.966 57.68 145.742 57.52C145.529 57.3493 145.348 57.1413 145.198 56.896H145.166V61.152H143.806V49.728ZM150.206 53.792C150.206 53.408 150.153 53.0347 150.046 52.672C149.95 52.2987 149.796 51.968 149.582 51.68C149.38 51.392 149.113 51.1627 148.782 50.992C148.462 50.8213 148.084 50.736 147.646 50.736C147.188 50.736 146.798 50.8267 146.478 51.008C146.158 51.1893 145.897 51.4293 145.694 51.728C145.492 52.016 145.342 52.3467 145.246 52.72C145.161 53.0933 145.118 53.472 145.118 53.856C145.118 54.2613 145.166 54.656 145.262 55.04C145.358 55.4133 145.508 55.744 145.71 56.032C145.924 56.32 146.196 56.5547 146.526 56.736C146.857 56.9067 147.257 56.992 147.726 56.992C148.196 56.992 148.585 56.9013 148.894 56.72C149.214 56.5387 149.47 56.2987 149.662 56C149.854 55.7013 149.993 55.36 150.078 54.976C150.164 54.592 150.206 54.1973 150.206 53.792ZM153.323 46.576H154.683V58H153.323V46.576ZM158.23 48.24H156.87V46.576H158.23V48.24ZM156.87 49.728H158.23V58H156.87V49.728ZM162.225 49.728H163.873V50.928H162.225V56.064C162.225 56.224 162.235 56.352 162.257 56.448C162.289 56.544 162.342 56.6187 162.417 56.672C162.491 56.7253 162.593 56.7627 162.721 56.784C162.859 56.7947 163.035 56.8 163.249 56.8H163.873V58H162.833C162.481 58 162.177 57.9787 161.921 57.936C161.675 57.8827 161.473 57.792 161.312 57.664C161.163 57.536 161.051 57.3547 160.977 57.12C160.902 56.8853 160.865 56.576 160.865 56.192V50.928H159.457V49.728H160.865V47.248H162.225V49.728ZM166.215 55.392C166.226 55.6907 166.295 55.9467 166.423 56.16C166.551 56.3627 166.717 56.528 166.919 56.656C167.133 56.7733 167.367 56.8587 167.623 56.912C167.89 56.9653 168.162 56.992 168.439 56.992C168.653 56.992 168.877 56.976 169.111 56.944C169.346 56.912 169.559 56.8533 169.751 56.768C169.954 56.6827 170.119 56.56 170.247 56.4C170.375 56.2293 170.439 56.016 170.439 55.76C170.439 55.408 170.306 55.1413 170.039 54.96C169.773 54.7787 169.437 54.6347 169.031 54.528C168.637 54.4107 168.205 54.3093 167.735 54.224C167.266 54.128 166.829 54 166.423 53.84C166.029 53.6693 165.698 53.4347 165.431 53.136C165.165 52.8373 165.031 52.4213 165.031 51.888C165.031 51.472 165.122 51.1147 165.303 50.816C165.495 50.5173 165.735 50.2773 166.023 50.096C166.322 49.904 166.653 49.7653 167.015 49.68C167.389 49.584 167.757 49.536 168.119 49.536C168.589 49.536 169.021 49.5787 169.415 49.664C169.81 49.7387 170.157 49.8773 170.455 50.08C170.765 50.272 171.01 50.5387 171.191 50.88C171.373 51.2107 171.479 51.6267 171.511 52.128H170.151C170.13 51.8613 170.061 51.6427 169.943 51.472C169.826 51.2907 169.677 51.1467 169.495 51.04C169.314 50.9333 169.111 50.8587 168.887 50.816C168.674 50.7627 168.455 50.736 168.231 50.736C168.029 50.736 167.821 50.752 167.607 50.784C167.405 50.816 167.218 50.8747 167.047 50.96C166.877 51.0347 166.738 51.1413 166.631 51.28C166.525 51.408 166.471 51.5787 166.471 51.792C166.471 52.0267 166.551 52.224 166.711 52.384C166.882 52.5333 167.095 52.6613 167.351 52.768C167.607 52.864 167.895 52.9493 168.215 53.024C168.535 53.088 168.855 53.1573 169.175 53.232C169.517 53.3067 169.847 53.3973 170.167 53.504C170.498 53.6107 170.786 53.7547 171.031 53.936C171.287 54.1067 171.49 54.3253 171.639 54.592C171.799 54.8587 171.879 55.1893 171.879 55.584C171.879 56.0853 171.773 56.5013 171.559 56.832C171.357 57.1627 171.085 57.4293 170.743 57.632C170.413 57.8347 170.034 57.9733 169.607 58.048C169.191 58.1333 168.775 58.176 168.359 58.176C167.901 58.176 167.463 58.128 167.047 58.032C166.631 57.936 166.263 57.7813 165.943 57.568C165.623 57.344 165.367 57.056 165.175 56.704C164.983 56.3413 164.877 55.904 164.855 55.392H166.215Z" fill="white"/>
</svg>
